<svg width="347" height="103" viewBox="0 0 347 103" fill="none" xmlns="http://www.w3.org/2000/svg">
<g opacity="0.8">
<path d="M262.97 34.8604H218.28V58.8304H262.97V34.8604Z" fill="white"/>
<path fill-rule="evenodd" clip-rule="evenodd" d="M45.8942 8.2154C48.1644 5.24383 51.6902 3.50049 55.4298 3.50049H68.0298C73.5442 3.50049 78.3488 7.25876 79.6767 12.6109L79.9543 13.7297L80.1637 12.8167C81.4147 7.36495 86.2663 3.50049 91.8598 3.50049H106.69C112.289 3.50049 117.144 7.37305 118.389 12.8323L118.566 13.6059L118.813 12.6087C120.142 7.25763 124.946 3.50049 130.46 3.50049H143.06C146.799 3.50049 150.325 5.24383 152.595 8.2154C154.866 11.187 155.621 15.0471 154.638 18.6551L137.568 81.3051C136.145 86.5272 131.402 90.1505 125.99 90.1505H110.44C105.423 90.1505 101.006 87.0427 99.2448 82.4738C97.4831 87.0432 93.0658 90.1505 88.0498 90.1505H72.4998C67.0873 90.1505 62.3447 86.5272 60.9219 81.3051L43.8519 18.6551C42.8688 15.0471 43.624 11.187 45.8942 8.2154Z" fill="white"/>
<path fill-rule="evenodd" clip-rule="evenodd" d="M133.183 60.5651C129.772 58.4489 127.5 54.6699 127.5 50.3603V41.7203C127.5 34.9649 129.346 27.8831 134.705 22.525C140.063 17.1669 147.144 15.3203 153.9 15.3203H182.78C188.598 15.3203 194.961 16.9132 199.834 21.7863C204.707 26.6594 206.3 33.0222 206.3 38.8403V48.9203C206.3 54.2375 205.035 59.8527 201.311 64.6356C200.263 65.982 199.103 67.1557 197.862 68.1761C203.082 69.4774 206.95 74.1972 206.95 79.8203V90.3303C206.95 96.9577 201.577 102.33 194.95 102.33H138.86C132.232 102.33 126.86 96.9577 126.86 90.3303V79.8203C126.86 72.5663 128.966 66.0446 133.183 60.5651Z" fill="white"/>
<path fill-rule="evenodd" clip-rule="evenodd" d="M193.053 10.984C198.897 5.14046 206.698 3.04053 214.39 3.04053H237.43C245.122 3.04053 252.923 5.14046 258.766 10.984C264.61 16.8275 266.71 24.6286 266.71 32.3205V36.9305C266.71 40.9746 264.709 44.5515 261.644 46.7255C264.709 48.8995 266.71 52.4764 266.71 56.5205V61.1305C266.71 68.8225 264.61 76.6235 258.766 82.4671C252.923 88.3106 245.122 90.4105 237.43 90.4105H214.39C206.698 90.4105 198.897 88.3106 193.053 82.4671C187.21 76.6235 185.11 68.8225 185.11 61.1305V32.3205C185.11 24.6286 187.21 16.8275 193.053 10.984ZM235.536 46.7255C232.631 44.6651 230.682 41.3446 230.486 37.5605H221.35V55.8905H230.486C230.682 52.1064 232.631 48.7859 235.536 46.7255Z" fill="white"/>
<path fill-rule="evenodd" clip-rule="evenodd" d="M295.157 1.14373C299.35 -0.840649 304.311 -0.230568 307.898 2.71056L341.818 30.5206C344.598 32.7998 346.21 36.2054 346.21 39.8004V53.7104C346.21 57.1918 344.698 60.5016 342.067 62.7809L308.465 91.8855C306.322 93.8802 303.448 95.1004 300.29 95.1004C293.663 95.1004 288.29 89.7278 288.29 83.1004V69.1904C288.29 65.6116 289.887 62.2196 292.646 59.9399L308.041 47.2187L292.889 35.3461C289.986 33.0714 288.29 29.5883 288.29 25.9004V11.9904C288.29 7.3515 290.964 3.12812 295.157 1.14373Z" fill="white"/>
<path fill-rule="evenodd" clip-rule="evenodd" d="M51.0533 1.1535C55.2463 3.13788 57.92 7.36127 57.92 12.0001V25.9101C57.92 29.5981 56.2242 33.0812 53.3213 35.3558L38.1691 47.2285L53.5639 59.9497C56.3227 62.2293 57.92 65.6214 57.92 69.2001V83.1101C57.92 87.8081 55.1785 92.074 50.9051 94.0256C46.6318 95.9773 41.6125 95.2558 38.062 92.1794L4.14195 62.7894C1.51133 60.5101 0 57.2009 0 53.7201V39.8101C0 36.2152 1.61173 32.8096 4.39176 30.5303L38.3118 2.72033C41.8991 -0.220803 46.8603 -0.830883 51.0533 1.1535Z" fill="white"/>
<path fill-rule="evenodd" clip-rule="evenodd" d="M268.521 12.6576C270.015 7.53906 274.708 4.02051 280.04 4.02051H290.99C294.768 4.02051 298.325 5.79933 300.591 8.82171C302.857 11.8441 303.568 15.7572 302.509 19.3834L284.219 82.0334C282.725 87.152 278.032 90.6705 272.7 90.6705H261.75C257.972 90.6705 254.415 88.8917 252.149 85.8693C249.883 82.8469 249.172 78.9339 250.231 75.3076L268.521 12.6576Z" fill="white"/>
</g>
<g filter="url(#filter0_d_364_3)">
<path d="M55.4302 15.5H68.0302L80.4102 65.4L91.8602 15.5H106.69L118.07 65.4L130.46 15.5H143.06L125.99 78.15H110.44L99.2802 28.25L88.0502 78.15H72.5002L55.4302 15.5Z" fill="url(#paint0_linear_364_3)"/>
<path d="M138.86 79.8198C138.86 68.1498 146.78 61.1698 162.69 56.5598C168.02 55.0498 173.42 54.0398 178.75 52.7398C181.41 52.0898 182.78 50.4398 182.78 47.6998V42.4398C182.78 39.4898 181.12 37.8298 178.17 37.8298H156.78C153.04 37.8298 151.02 39.8498 151.02 43.5898V50.3598H139.5V41.7198C139.5 32.3598 144.54 27.3198 153.9 27.3198H182.78C190.27 27.3198 194.3 31.3498 194.3 38.8398V48.9198C194.3 55.8298 191.06 60.0098 184.36 61.6698C179.68 62.8198 174.93 63.7598 170.25 64.8398C157.43 67.8598 150.38 72.0398 150.38 79.8198H194.95V90.3298H138.86V79.8198Z" fill="url(#paint1_linear_364_3)"/>
<path d="M197.11 61.12V32.32C197.11 21.09 203.16 15.04 214.39 15.04H237.43C248.66 15.04 254.71 21.09 254.71 32.32V36.93H242.47V32.47C242.47 28.01 240.02 25.56 235.56 25.56H216.26C211.8 25.56 209.35 28.01 209.35 32.47V60.98C209.35 65.44 211.8 67.89 216.26 67.89H235.56C240.02 67.89 242.47 65.44 242.47 60.98V56.52H254.71V61.13C254.71 72.36 248.66 78.41 237.43 78.41H214.39C203.16 78.41 197.11 72.36 197.11 61.13V61.12Z" fill="url(#paint2_linear_364_3)"/>
<path d="M300.29 83.1002V69.1902L327.18 46.9702L300.29 25.9002V11.9902L334.21 39.8002V53.7102L300.29 83.0902V83.1002Z" fill="#333333"/>
<path d="M12 53.72V39.81L45.92 12V25.91L19.03 46.98L45.92 69.2V83.11L12 53.72Z" fill="#333333"/>
<path d="M280.05 16.02H290.99L272.7 78.67H261.75L280.04 16.02H280.05Z" fill="#333333"/>
</g>
<defs>
<filter id="filter0_d_364_3" x="8" y="7.99023" width="330.21" height="86.3394" filterUnits="userSpaceOnUse" color-interpolation-filters="sRGB">
<feFlood flood-opacity="0" result="BackgroundImageFix"/>
<feColorMatrix in="SourceAlpha" type="matrix" values="0 0 0 0 0 0 0 0 0 0 0 0 0 0 0 0 0 0 127 0" result="hardAlpha"/>
<feOffset/>
<feGaussianBlur stdDeviation="2"/>
<feComposite in2="hardAlpha" operator="out"/>
<feColorMatrix type="matrix" values="0 0 0 0 0 0 0 0 0 0 0 0 0 0 0 0 0 0 0.4 0"/>
<feBlend mode="normal" in2="BackgroundImageFix" result="effect1_dropShadow_364_3"/>
<feBlend mode="normal" in="SourceGraphic" in2="effect1_dropShadow_364_3" result="shape"/>
</filter>
<linearGradient id="paint0_linear_364_3" x1="55" y1="16" x2="143" y2="78" gradientUnits="userSpaceOnUse">
<stop stop-color="#D61717"/>
<stop offset="1" stop-color="#FF6B00"/>
</linearGradient>
<linearGradient id="paint1_linear_364_3" x1="139" y1="27" x2="195" y2="90" gradientUnits="userSpaceOnUse">
<stop stop-color="#D61717"/>
<stop offset="1" stop-color="#FF6B00"/>
</linearGradient>
<linearGradient id="paint2_linear_364_3" x1="197" y1="15" x2="255" y2="78" gradientUnits="userSpaceOnUse">
<stop stop-color="#D61717"/>
<stop offset="1" stop-color="#FF6B00"/>
</linearGradient>
</defs>
</svg>
